<svg width="48" height="48" viewBox="0 0 48 48" fill="none" xmlns="http://www.w3.org/2000/svg">
<path d="M20.2587 23.0097C21.689 22.4256 23.1242 21.8553 24.5445 21.25C24.9647 21.0707 25.0558 21.3645 25.052 21.8079C25.0346 24.0608 25.052 26.3137 25.0396 28.5666C25.0358 29.1906 25.2042 29.4706 25.875 29.625C25.875 30.1518 25.875 30.8681 25.875 31.3949C25.3887 31.4211 25.0869 31.6776 25.0882 32.1608C25.0882 32.6428 25.3937 32.7114 25.875 32.75C25.875 33.354 25.875 34.146 25.875 34.75C23.9996 33.994 22.1242 33.2381 20.25 32.4821C20.2538 29.3961 20.2563 26.31 20.26 23.2239L20.2587 23.0097Z" fill="#E9DCFE"/>
<path d="M12.4529 24.8994C13.0884 24.8932 13.724 24.8982 14.3583 24.8757C14.6514 24.8657 14.7524 24.9658 14.75 25.2661C14.7401 26.954 14.7376 28.6419 14.75 30.3298C14.7524 30.6664 14.6293 30.7614 14.3176 30.7489C13.703 30.7252 13.0884 30.7327 12.4726 30.7264C12.2028 30.3873 11.8949 30.0733 11.672 29.7054C10.811 28.2878 10.8923 26.3959 12.4504 24.9007L12.4529 24.8994Z" fill="#E9DCFE"/>
<path d="M13.8763 32.1253C14.4588 32.1144 14.75 32.386 14.75 32.9402C14.75 33.711 14.75 34.4818 14.75 35.2526C14.75 35.7749 14.4583 36.0235 13.875 35.9983C13.875 34.7073 13.875 33.4163 13.875 32.1253H13.8763Z" fill="#E9DCFE"/>
<path d="M25.7745 31.375C26.2177 31.4331 26.5 31.6861 26.5 32.1208C26.5 32.5554 26.2079 32.8024 25.7745 32.875C25.3007 32.8375 25.0012 32.5881 25 32.1196C25 31.6486 25.2958 31.4004 25.7745 31.375Z" fill="#061626"/>
<path d="M39.7225 39.8512C39.7225 40.9075 39.7275 41.8838 39.7212 42.86C39.7162 43.7838 39.4025 44.0975 38.4837 44.1012C37.5062 44.105 36.53 44.1012 35.4525 44.1012C35.4525 44.9525 35.4525 45.775 35.4525 46.5975C35.4513 47.7412 35.195 48 34.0662 48C24.5037 48 14.9412 48 5.38 48C4.285 48 4 47.7225 4 46.6525C4 34.2775 4 21.9038 4 9.52875C4 8.445 4.29 8.15125 5.36125 8.15C6.2575 8.14875 7.1525 8.14875 8.04875 8.1475C8.09 8.1475 8.13125 8.13875 8.27 8.12375C8.27 7.315 8.27 6.4925 8.27 5.66875C8.27125 4.52875 8.52875 4.26875 9.65875 4.2675C10.5925 4.2675 11.5263 4.2675 12.5413 4.2675C12.5413 3.2525 12.5388 2.28125 12.5413 1.31125C12.545 0.29625 12.8337 0 13.8287 0C23.4538 0 33.0788 0 42.7025 0C43.69 0 43.9912 0.3075 43.9912 1.3125C43.9912 13.7075 43.9912 26.1037 43.9912 38.4987C43.9912 39.54 43.6875 39.8475 42.6637 39.85C41.7087 39.8525 40.7537 39.85 39.7212 39.85L39.7225 39.8512ZM5.165 9.3075V46.8363H34.2712V9.3075H5.165ZM13.6912 4.26625H14.4913C22.405 4.26625 30.32 4.26625 38.2337 4.26625C39.4875 4.26625 39.725 4.50375 39.725 5.75875C39.725 16.485 39.725 27.21 39.725 37.9362C39.725 38.1787 39.725 38.4225 39.725 38.685H42.835V1.16H13.6912V4.26625ZM38.5625 42.9425V5.4325H9.445V8.1475H10.2413C18.1337 8.1475 26.0262 8.1475 33.92 8.1475C35.2238 8.1475 35.4575 8.37875 35.4575 9.665C35.4575 20.4937 35.4575 31.3237 35.4575 42.1525C35.4575 42.4125 35.4575 42.6712 35.4575 42.9425H38.5625Z" fill="#061626"/>
<path d="M13.6913 4.26625V1.16H42.8338V38.6838H39.7238C39.7238 38.4213 39.7238 38.1788 39.7238 37.935C39.7238 27.2088 39.7238 16.4838 39.7238 5.7575C39.7238 4.5025 39.4875 4.265 38.2325 4.265C30.3188 4.265 22.4038 4.265 14.49 4.265H13.69L13.6913 4.26625Z" fill="#934FF8"/>
<path d="M38.5625 42.9425H35.4575C35.4575 42.6712 35.4575 42.4125 35.4575 42.1525C35.4575 31.3237 35.4575 20.4937 35.4575 9.665C35.4575 8.37875 35.2238 8.1475 33.92 8.1475C26.0275 8.1475 18.135 8.1475 10.2413 8.1475H9.44501V5.4325H38.5625V42.9425Z" fill="#E9DCFE"/>
<path d="M16.2982 32.6957C16.2982 33.9758 16.3007 35.2633 16.2982 36.552C16.2957 37.3808 16.0582 37.6163 15.2201 37.62C14.3204 37.625 13.4207 37.6287 12.521 37.6188C11.8136 37.6102 11.5371 37.3413 11.5321 36.6408C11.522 35.3472 11.5045 34.0523 11.5421 32.7599C11.556 32.2912 11.4203 32.1926 10.9579 32.1913C8.6923 32.1802 6.93941 30.6572 6.55616 28.4189C6.21061 26.4038 7.49104 24.3282 9.53041 23.6191C10.0242 23.4477 10.5558 23.2973 11.0672 23.3676C14.637 23.8645 17.7633 22.5179 20.9173 21.1971C23.4643 20.1303 26.0515 19.1548 28.6237 18.1448C29.5309 17.7884 29.9895 18.0905 29.9921 19.0438C29.9971 20.6668 30.0021 22.2885 29.987 23.9114C29.9833 24.2592 30.0574 24.4429 30.4331 24.5712C31.7763 25.03 32.6911 26.3137 32.7477 27.7209C32.8017 29.0663 31.9158 30.4377 30.5713 30.9593C30.1026 31.1406 29.9707 31.3651 29.9807 31.8423C30.0147 33.4024 29.9971 34.9636 29.9921 36.5249C29.9895 37.5053 29.5095 37.8173 28.5822 37.4498C24.7007 35.912 20.8192 34.3705 16.934 32.8413C16.7518 32.7697 16.5709 32.6254 16.3007 32.697L16.2982 32.6957ZM13.9007 36.0255C14.446 36.0501 14.7191 35.8068 14.72 35.2954C14.72 34.5406 14.72 33.7859 14.72 33.0312C14.72 32.4885 14.4473 32.2226 13.9019 32.2333C13.3708 32.1938 13.1053 32.4191 13.1053 32.9091C13.1053 33.7279 13.1053 34.5468 13.1053 35.3644C13.1053 35.8742 13.3708 36.0945 13.9019 36.0255H13.9007ZM12.4167 24.9449C11.8525 24.9449 11.2846 24.9091 10.7229 24.9498C9.30424 25.0534 8.17962 26.2188 8.09921 27.6271C8.01753 29.0515 8.97879 30.2971 10.3773 30.5955C11.0621 30.7423 11.7495 30.709 12.4393 30.6868C13.0663 30.693 13.6946 30.6868 14.3216 30.709C14.6395 30.7201 14.7652 30.6264 14.7627 30.2959C14.7489 28.6322 14.7514 26.9686 14.7627 25.305C14.7652 25.0078 14.6609 24.9091 14.3631 24.9202C13.716 24.9424 13.0663 24.9375 12.4192 24.9436L12.4167 24.9449ZM20.0465 32.3813C21.9363 33.1298 23.8262 33.8784 25.7148 34.627C26.3883 34.8995 27.0593 35.1745 27.734 35.4421C28.3824 35.6987 28.3849 35.695 28.3849 35.0364C28.3849 30.2169 28.3849 25.3962 28.3849 20.5767V19.9034C27.8471 20.1131 27.396 20.319 26.9236 20.4621C26.5554 20.573 26.4662 20.7691 26.4687 21.128C26.4838 23.5895 26.4611 26.0511 26.4875 28.5114C26.4938 29.1218 26.3179 29.5387 25.716 29.7409C25.04 29.588 24.8704 29.1218 24.8741 28.5052C24.8867 26.2743 24.8691 24.0434 24.8867 21.8124C24.8905 21.3722 24.8 21.2945 24.3753 21.4721C22.9441 22.0714 21.4965 22.6362 20.0565 23.2146C18.9168 23.6586 17.7822 24.1137 16.6362 24.5379C16.3711 24.6366 16.2919 24.7611 16.2932 25.0263C16.3032 26.8724 16.3045 28.7186 16.2906 30.5647C16.2881 30.8311 16.3673 30.9778 16.6161 31.0716C17.7608 31.5044 18.903 31.9459 20.0452 32.3837L20.0465 32.3813ZM30.021 29.5448C30.8691 29.0515 31.2134 28.409 31.1217 27.5519C31.0501 26.8749 30.6882 26.4001 30.021 26.0634V29.5448Z" fill="#061626"/>
</svg>
