<svg width="179" height="48" viewBox="0 0 179 48" fill="none" xmlns="http://www.w3.org/2000/svg">
<mask id="mask0_1_1337" style="mask-type:luminance" maskUnits="userSpaceOnUse" x="0" y="0" width="38" height="48">
<path d="M37.249 25.7001C37.205 25.054 35.9068 23.852 35.9068 23.852C36.579 22.6963 37.9053 22.0904 37.5962 20.9224C37.3474 19.9834 34.2635 18.8076 33.6855 17.0859C33.1658 15.5388 33.9905 14.642 32.6563 10.1393C31.7594 7.1074 25.1418 -2.56598 12.7536 0.644382C3.57163 3.02416 -1.80371 11.6441 0.553855 20.83C0.553855 20.83 1.65748 27.9652 7.28973 32.6744C10.422 35.2909 10.1851 34.7231 9.52296 37.5522C9.06951 39.4805 5.93134 41.8302 4.07112 45.6085C16.3269 44.206 16.1504 49.124 30.174 47.7575C29.7487 46.9569 28.2577 44.4689 25.3283 42.683C21.7908 40.5239 21.7225 37.791 22.9103 36.7919C24.2748 35.6442 33.0173 36.9805 36.0852 34.4101C37.0604 33.5935 37.3934 31.1295 36.7694 29.2835C36.7694 29.2835 38.164 27.9792 36.1234 27.3813C36.7816 26.9121 37.2892 26.3001 37.249 25.7001Z" fill="white"/>
</mask>
<g mask="url(#mask0_1_1337)">
<path d="M18.1663 11.2745V29.4411H13.1698C13.3987 28.9061 13.5258 28.3174 13.5258 27.6979C13.5258 25.2466 11.5364 23.2592 9.08312 23.2592C6.63006 23.2592 4.64246 25.2466 4.64246 27.6979C4.64246 28.3174 4.76752 28.9061 4.99846 29.4411H-0.000106812V11.2745H4.99846C4.76752 11.8093 4.64246 12.3982 4.64246 13.0177C4.64246 15.469 6.62989 17.4564 9.08312 17.4564C11.5362 17.4564 13.5258 15.469 13.5258 13.0177C13.5258 12.3982 13.3987 11.8094 13.1698 11.2745H18.1663Z" fill="#F8584F"/>
<path d="M21.1723 23.5355C22.9272 23.5355 24.3499 22.1128 24.3499 20.3579C24.3499 18.6029 22.9272 17.1803 21.1723 17.1803C19.4174 17.1803 17.9947 18.6029 17.9947 20.3579C17.9947 22.1128 19.4174 23.5355 21.1723 23.5355Z" fill="#F8584F"/>
<path d="M19.4298 11.2746H37.5963V29.4411H19.4298V24.444C19.9651 24.6733 20.553 24.7994 21.1721 24.7994C23.6238 24.7994 25.6121 22.8111 25.6121 20.3579C25.6121 17.9046 23.6238 15.9163 21.1721 15.9163C20.5528 15.9163 19.965 16.0423 19.4298 16.2718V11.2746Z" fill="#934FF8"/>
<path d="M28.513 11.4471C30.268 11.4471 31.6906 10.0245 31.6906 8.26956C31.6906 6.51463 30.268 5.09198 28.513 5.09198C26.7581 5.09198 25.3355 6.51463 25.3355 8.26956C25.3355 10.0245 26.7581 11.4471 28.513 11.4471Z" fill="#934FF8"/>
<path d="M28.513 35.6237C30.268 35.6237 31.6906 34.2011 31.6906 32.4461C31.6906 30.6912 30.268 29.2686 28.513 29.2686C26.7581 29.2686 25.3355 30.6912 25.3355 32.4461C25.3355 34.2011 26.7581 35.6237 28.513 35.6237Z" fill="#934FF8"/>
<path d="M19.4298 10.0105V-8.15594H37.5963V10.0105H32.5991C32.8286 9.47518 32.9546 8.88736 32.9546 8.268C32.9546 5.81638 30.9663 3.82788 28.513 3.82788C26.0598 3.82788 24.0715 5.8162 24.0715 8.268C24.0715 8.88736 24.1974 9.47518 24.4269 10.0105H19.4298Z" fill="#5177ED"/>
<path d="M16.4247 4.10486C18.1797 4.10486 19.6023 2.6822 19.6023 0.927275C19.6023 -0.827654 18.1797 -2.25031 16.4247 -2.25031C14.6698 -2.25031 13.2472 -0.827654 13.2472 0.927275C13.2472 2.6822 14.6698 4.10486 16.4247 4.10486Z" fill="#5177ED"/>
<path d="M18.1673 10.0105H0.000640869V-8.15594H18.1671V-3.15882C17.6318 -3.38832 17.0439 -3.51427 16.4246 -3.51427C13.973 -3.51427 11.9846 -1.52595 11.9846 0.927283C11.9846 3.38052 13.973 5.36884 16.4246 5.36884C17.0439 5.36884 17.6318 5.24289 18.1671 5.01338L18.1673 10.0105Z" fill="#FFAB51"/>
<path d="M9.08405 16.1933C10.8391 16.1933 12.2618 14.7706 12.2618 13.0156C12.2618 11.2605 10.8391 9.8378 9.08405 9.8378C7.32902 9.8378 5.90629 11.2605 5.90629 13.0156C5.90629 14.7706 7.32902 16.1933 9.08405 16.1933Z" fill="#FFAB51"/>
<path d="M19.4298 30.7053V48.8717H37.5963V30.7053H32.5991C32.8286 31.2406 32.9546 31.8284 32.9546 32.4476C32.9546 34.8992 30.9663 36.8875 28.513 36.8875C26.0598 36.8875 24.0715 34.8992 24.0715 32.4476C24.0715 31.8282 24.1974 31.2404 24.4269 30.7053H19.4298Z" fill="#FFAB51"/>
<path d="M16.4247 42.9661C18.1797 42.9661 19.6023 41.5434 19.6023 39.7885C19.6023 38.0336 18.1797 36.6109 16.4247 36.6109C14.6698 36.6109 13.2472 38.0336 13.2472 39.7885C13.2472 41.5434 14.6698 42.9661 16.4247 42.9661Z" fill="#FFAB51"/>
<path d="M18.1672 30.7053H0.000602722V48.8717H18.1671V43.8746C17.6317 44.1041 17.0439 44.23 16.4246 44.23C13.9729 44.23 11.9846 42.2417 11.9846 39.7885C11.9846 37.3353 13.9729 35.3469 16.4246 35.3469C17.0439 35.3469 17.6317 35.4729 18.1671 35.7024L18.1672 30.7053Z" fill="#5177ED"/>
<path d="M9.08402 30.878C10.839 30.878 12.2618 29.4552 12.2618 27.7002C12.2618 25.9452 10.839 24.5225 9.08402 24.5225C7.32899 24.5225 5.90626 25.9452 5.90626 27.7002C5.90626 29.4552 7.32899 30.878 9.08402 30.878Z" fill="#5177ED"/>
</g>
<path d="M63.7622 37.4C63.4155 36.9467 63.1222 36.4533 62.8822 35.92C62.6422 35.36 62.3889 34.6933 62.1222 33.92C62.0689 33.7867 61.9089 33.3867 61.6422 32.72C61.4022 32.0533 61.1222 31.48 60.8022 31C59.1222 31.24 57.7489 31.36 56.6822 31.36C56.0955 31.36 55.4422 31.3467 54.7222 31.32C54.0289 31.2667 53.5089 31.24 53.1622 31.24C51.8289 31.1333 50.7622 31.08 49.9622 31.08C49.6422 31.5067 49.3622 31.96 49.1222 32.44C48.9089 32.92 48.6289 33.64 48.2822 34.6C47.8022 35.9867 47.3889 36.9733 47.0422 37.56C46.8022 37.96 46.3355 38.16 45.6422 38.16C45.0555 38.16 44.5089 38.04 44.0022 37.8C43.5222 37.5333 43.2822 37.1733 43.2822 36.72C43.4955 35.7067 43.8289 34.64 44.2822 33.52C44.7622 32.3733 45.4422 30.8533 46.3222 28.96L47.9222 25.04C48.8022 22.8 49.6022 20.88 50.3222 19.28C51.0689 17.68 52.0422 15.7867 53.2422 13.6C53.4022 13.28 53.6689 13.0133 54.0422 12.8C54.4155 12.56 54.8289 12.44 55.2822 12.44C55.7889 12.44 56.1489 12.48 56.3622 12.56C56.6022 12.6133 56.7889 12.72 56.9222 12.88C57.0555 13.0133 57.2555 13.3067 57.5222 13.76C58.4289 15.1733 59.2022 16.6267 59.8422 18.12C60.5089 19.6133 61.3489 21.68 62.3622 24.32L63.2022 26.44C63.9489 28.36 64.5889 29.9733 65.1222 31.28C65.6822 32.56 66.2955 33.7333 66.9622 34.8C67.3889 35.4933 67.6022 35.9733 67.6022 36.24C67.6022 36.88 67.4022 37.3733 67.0022 37.72C66.6289 38.04 66.1355 38.2 65.5222 38.2C64.7489 38.2 64.1622 37.9333 63.7622 37.4ZM59.6422 27.72C59.2155 26.8133 58.6022 25.24 57.8022 23C56.9755 20.6 56.1489 18.6933 55.3222 17.28C54.8155 18.56 54.0689 20.2133 53.0822 22.24C52.4155 23.4933 51.6555 25.3067 50.8022 27.68C52.5089 27.8933 54.3489 28 56.3222 28C57.7355 28 58.8422 27.9067 59.6422 27.72Z" fill="#934FF8"/>
<path d="M73.1481 12.6C73.6548 12.6 74.1081 12.7333 74.5081 13C74.9348 13.2667 75.1881 13.7333 75.2681 14.4C75.5881 16.5067 75.7881 18.6133 75.8681 20.72C75.9748 22.8 76.0281 25.16 76.0281 27.8C76.0281 28.92 75.9348 30.96 75.7481 33.92C76.9215 34.0267 77.8281 34.08 78.4681 34.08C78.9215 34.08 79.9481 34.0133 81.5481 33.88C82.4815 33.7467 83.2948 33.68 83.9881 33.68C84.6281 33.68 85.2148 33.7467 85.7481 33.88C86.2815 33.9867 86.8281 34.1733 87.3881 34.44C87.9481 34.76 88.2281 35.2533 88.2281 35.92C88.2281 36.4533 88.0548 36.9333 87.7081 37.36C87.3881 37.7867 87.0015 38 86.5481 38C86.2281 38 85.7215 37.9467 85.0281 37.84C83.7748 37.6533 82.5748 37.56 81.4281 37.56C81.0548 37.56 80.6281 37.5867 80.1481 37.64C79.6948 37.6667 79.3615 37.68 79.1481 37.68C78.5081 37.76 77.8681 37.8 77.2281 37.8C75.9215 37.8 74.7481 37.7333 73.7081 37.6C73.1748 37.5467 72.6415 37.3467 72.1081 37C71.5748 36.6267 71.3081 36.0933 71.3081 35.4C71.3081 35 71.3615 33.9733 71.4681 32.32C71.6548 29.5733 71.7481 27.48 71.7481 26.04C71.7481 24.92 71.6948 23.7467 71.5881 22.52C71.4815 21.2933 71.4148 20.52 71.3881 20.2C71.1481 17.9333 71.0281 16.0667 71.0281 14.6C71.0281 13.9067 71.1881 13.4 71.5081 13.08C71.8548 12.76 72.4015 12.6 73.1481 12.6Z" fill="#F8584F"/>
<path d="M88.8634 14.68C88.8634 13.5333 89.7034 12.96 91.3834 12.96C92.1034 12.96 93.4768 12.9867 95.5034 13.04C97.7434 13.1467 99.4368 13.2 100.583 13.2C101.517 13.2 102.65 13.1467 103.983 13.04C104.89 12.9867 105.463 12.96 105.703 12.96C107.17 13.0133 108.41 13.28 109.423 13.76C109.717 13.8933 109.957 14.0533 110.143 14.24C110.33 14.4267 110.423 14.7333 110.423 15.16C110.423 15.7467 110.237 16.2533 109.863 16.68C109.49 17.08 109.037 17.28 108.503 17.28C107.917 17.28 107.063 17.2 105.943 17.04C104.957 16.8533 104.09 16.76 103.343 16.76C102.623 16.76 102.077 16.7733 101.703 16.8C101.623 17.68 101.583 19.7867 101.583 23.12C101.583 27.0933 101.703 31.12 101.943 35.2L102.023 36.36C102.023 37.4533 101.397 38 100.143 38C99.1568 38 98.4901 37.7733 98.1434 37.32C97.7968 36.84 97.6234 36.12 97.6234 35.16C97.6234 33.2667 97.5701 30.9067 97.4634 28.08C97.3568 25.7333 97.3034 24.0667 97.3034 23.08C97.3034 22.4133 97.3834 20.3733 97.5434 16.96L92.8634 17C91.3701 17 90.3301 16.8667 89.7434 16.6C89.1568 16.3067 88.8634 15.6667 88.8634 14.68Z" fill="#FFAB51"/>
<path d="M131.925 35.44C131.952 36 131.885 36.4 131.725 36.64C131.565 36.8533 131.245 37.08 130.765 37.32C130.045 37.6667 129.192 37.8933 128.205 38C127.245 38.1067 126.005 38.16 124.485 38.16H121.765C119.392 38.16 117.632 37.76 116.485 36.96C115.339 36.1333 114.619 35.1467 114.325 34C114.032 32.8533 113.859 31.3733 113.805 29.56C113.779 28.9467 113.765 28.04 113.765 26.84C113.765 24.2267 113.992 20.7333 114.445 16.36C114.579 15.08 115.045 14.16 115.845 13.6C116.645 13.0133 117.552 12.72 118.565 12.72C119.392 12.72 120.739 12.6933 122.605 12.64L126.125 12.6C127.565 12.6 128.605 12.64 129.245 12.72C130.045 12.88 130.645 13.0667 131.045 13.28C131.445 13.4667 131.659 13.8 131.685 14.28C131.685 14.8133 131.512 15.3333 131.165 15.84C130.819 16.3467 130.285 16.6 129.565 16.6C128.739 16.6 127.552 16.5467 126.005 16.44C124.459 16.3333 123.285 16.28 122.485 16.28C121.765 16.28 121.112 16.32 120.525 16.4C119.779 16.4533 119.245 16.5467 118.925 16.68C118.605 16.8133 118.432 17.04 118.405 17.36C118.112 20.2667 117.992 22.2933 118.045 23.44C118.659 23.52 119.272 23.56 119.885 23.56C120.499 23.56 121.339 23.5067 122.405 23.4C122.672 23.3733 123.005 23.3467 123.405 23.32C123.805 23.2933 124.259 23.28 124.765 23.28C125.059 23.28 125.525 23.3067 126.165 23.36L127.405 23.4C128.632 23.4 129.245 23.84 129.245 24.72C129.245 25.2533 129.099 25.68 128.805 26C128.512 26.32 127.992 26.56 127.245 26.72C126.232 26.9067 124.592 27 122.325 27H119.885C119.379 27 118.752 26.9733 118.005 26.92C117.979 27.4 117.965 28.0933 117.965 29C117.965 30.1733 117.979 31 118.005 31.48C118.085 33.3467 119.379 34.28 121.885 34.28C122.739 34.28 123.645 34.3067 124.605 34.36L126.085 34.4C126.779 34.4 127.352 34.3333 127.805 34.2C128.259 34.04 128.699 33.9067 129.125 33.8C129.579 33.6667 129.992 33.6 130.365 33.6C130.872 33.6 131.259 33.8 131.525 34.2C131.792 34.5733 131.925 34.9867 131.925 35.44ZM154.068 30.76C154.068 32.0133 153.775 33.0933 153.188 34C152.628 34.88 151.695 35.6933 150.388 36.44C149.508 36.9733 148.481 37.3733 147.308 37.64C146.135 37.9067 144.948 38.04 143.748 38.04C142.521 38.04 141.001 37.64 139.188 36.84C137.881 36.2 136.841 35.44 136.068 34.56C135.321 33.68 134.948 32.72 134.948 31.68C134.948 30.96 135.108 30.44 135.428 30.12C135.748 29.7733 136.268 29.6 136.988 29.6C137.361 29.6 137.748 29.76 138.148 30.08C138.548 30.3733 138.788 30.6667 138.868 30.96C139.241 32.0533 139.895 32.8933 140.828 33.48C141.761 34.04 142.921 34.32 144.308 34.32C145.908 34.32 147.241 34.0267 148.308 33.44C149.401 32.8533 149.948 32.0667 149.948 31.08C149.948 30.12 149.361 29.2667 148.188 28.52C147.015 27.7733 145.815 27.2533 144.588 26.96C142.828 26.48 141.268 25.9067 139.908 25.24C138.495 24.5467 137.441 23.6933 136.748 22.68C136.055 21.6667 135.708 20.6 135.708 19.48C135.708 18.44 136.068 17.3867 136.788 16.32C137.508 15.2267 138.361 14.44 139.348 13.96C139.881 13.6933 140.788 13.4133 142.068 13.12C143.375 12.8 144.321 12.64 144.908 12.64C145.655 12.64 146.441 12.7333 147.268 12.92C148.095 13.1067 148.801 13.3733 149.388 13.72C150.561 14.3867 151.428 14.9867 151.988 15.52C152.548 16.0533 152.828 16.72 152.828 17.52C152.828 18 152.641 18.4267 152.268 18.8C151.921 19.1733 151.308 19.36 150.428 19.36C150.215 19.36 150.001 19.2667 149.788 19.08C149.575 18.8933 149.308 18.6133 148.988 18.24C148.561 17.68 148.148 17.3067 147.748 17.12C147.321 16.96 146.788 16.8133 146.148 16.68C145.508 16.52 144.908 16.44 144.348 16.44C143.708 16.44 143.041 16.5733 142.348 16.84C141.655 17.1067 141.068 17.4933 140.588 18C140.135 18.48 139.908 19.04 139.908 19.68C139.908 20.2133 140.148 20.68 140.628 21.08C141.135 21.4533 141.735 21.76 142.428 22C143.228 22.32 144.095 22.6 145.028 22.84C146.255 23.2133 147.255 23.56 148.028 23.88C148.828 24.1733 149.601 24.5467 150.348 25C151.655 25.7733 152.601 26.5733 153.188 27.4C153.775 28.2 154.068 29.32 154.068 30.76ZM156.129 14.68C156.129 13.5333 156.969 12.96 158.649 12.96C159.369 12.96 160.742 12.9867 162.769 13.04C165.009 13.1467 166.702 13.2 167.849 13.2C168.782 13.2 169.916 13.1467 171.249 13.04C172.156 12.9867 172.729 12.96 172.969 12.96C174.436 13.0133 175.676 13.28 176.689 13.76C176.982 13.8933 177.222 14.0533 177.409 14.24C177.596 14.4267 177.689 14.7333 177.689 15.16C177.689 15.7467 177.502 16.2533 177.129 16.68C176.756 17.08 176.302 17.28 175.769 17.28C175.182 17.28 174.329 17.2 173.209 17.04C172.222 16.8533 171.356 16.76 170.609 16.76C169.889 16.76 169.342 16.7733 168.969 16.8C168.889 17.68 168.849 19.7867 168.849 23.12C168.849 27.0933 168.969 31.12 169.209 35.2L169.289 36.36C169.289 37.4533 168.662 38 167.409 38C166.422 38 165.756 37.7733 165.409 37.32C165.062 36.84 164.889 36.12 164.889 35.16C164.889 33.2667 164.836 30.9067 164.729 28.08C164.622 25.7333 164.569 24.0667 164.569 23.08C164.569 22.4133 164.649 20.3733 164.809 16.96L160.129 17C158.636 17 157.596 16.8667 157.009 16.6C156.422 16.3067 156.129 15.6667 156.129 14.68Z" fill="#582F95"/>
</svg>
