<svg width="35" height="26" viewBox="0 0 35 26" fill="none" xmlns="http://www.w3.org/2000/svg">
<path d="M17.4318 0.52376C20.7664 0.44687 24.0557 0.576992 27.3426 0.762711C28.4619 0.826589 29.5812 0.93187 30.6866 1.13888C32.831 1.54108 34.1606 3.07297 34.5105 5.53819C35.0963 9.67253 35.1172 13.8175 34.7766 17.9743C34.693 18.9975 34.5732 20.0101 34.3977 21.018C34.02 23.1887 32.4102 24.6815 30.2426 24.937C27.2962 25.2836 24.337 25.3286 21.3778 25.4374C18.4139 25.5474 15.4536 25.493 12.4932 25.4067C9.94086 25.3321 7.38732 25.2493 4.84772 24.9299C2.44875 24.6295 0.912207 23.1508 0.520516 20.6962C0.228781 18.8662 0.0846575 17.0244 0.0346791 15.1696C-0.0536549 11.9 -0.00367642 8.6351 0.506568 5.39387C0.871527 3.07415 2.23024 1.51032 4.20265 1.13533C5.26846 0.933053 6.34939 0.824224 7.43032 0.765077C10.7754 0.581723 14.1216 0.443321 17.4318 0.52376ZM14.0647 12.9942C14.0647 14.5119 14.0728 16.0296 14.06 17.5473C14.0565 17.9932 14.1007 18.1872 14.59 17.8962C17.2156 16.3371 19.8505 14.7958 22.4924 13.2651C22.8829 13.0391 22.8783 12.9398 22.4924 12.7162C19.8366 11.1701 17.1889 9.61101 14.5447 8.04482C14.1762 7.82597 14.0519 7.8591 14.0577 8.3228C14.074 9.87954 14.0635 11.4375 14.0635 12.9942H14.0647Z" fill="#582F95"/>
</svg>
