<svg width="13" height="26" viewBox="0 0 13 26" fill="none" xmlns="http://www.w3.org/2000/svg">
<path d="M8.4746 19.8187C8.4746 21.5443 8.4637 23.2706 8.48317 24.9962C8.48785 25.3949 8.3593 25.5071 7.97053 25.5C6.76371 25.4782 5.55611 25.4923 4.34851 25.4923C3.78445 25.4923 3.78133 25.4915 3.78133 24.9347C3.78055 21.5606 3.78133 18.1865 3.78133 14.8125C3.78133 14.3857 3.56578 14.1721 3.13468 14.1716C2.25196 14.1716 1.36847 14.163 0.485752 14.1755C0.153077 14.1802 -0.00507904 14.0968 0.00115373 13.7168C0.0229684 12.4974 0.0175148 11.2772 0.00427011 10.0577C0.00115373 9.74004 0.104773 9.62246 0.428098 9.62713C1.37548 9.64192 2.32364 9.61623 3.27102 9.63959C3.65745 9.64971 3.79379 9.53992 3.78912 9.13811C3.77665 8.06195 3.75094 6.98502 3.82652 5.90886C3.95273 4.12176 4.53004 2.56437 6.05863 1.48821C6.82915 0.94546 7.7033 0.625417 8.62964 0.560785C9.97514 0.46812 11.3269 0.467342 12.6708 0.659679C12.917 0.694721 13.0012 0.792058 12.9996 1.03112C12.9926 2.13375 12.991 3.23716 12.9996 4.33979C13.0019 4.60922 12.9007 4.70033 12.6342 4.70422C11.831 4.71512 11.0277 4.67074 10.2229 4.75873C9.03555 4.88877 8.5268 5.37546 8.48473 6.57854C8.45279 7.48572 8.48395 8.39524 8.46993 9.30319C8.46525 9.60611 8.62731 9.63336 8.86415 9.63258C10.0328 9.62713 11.2014 9.62869 12.3701 9.63102C12.8313 9.6318 12.8726 9.69488 12.8111 10.1613C12.6545 11.3434 12.4947 12.5247 12.3615 13.709C12.3233 14.0493 12.194 14.1802 11.8489 14.1747C10.8882 14.1599 9.92684 14.1872 8.96699 14.1615C8.56342 14.1506 8.46214 14.2938 8.46603 14.6785C8.48395 16.3917 8.47383 18.104 8.47383 19.8171L8.4746 19.8187Z" fill="#582F95"/>
</svg>
