<svg width="48" height="48" viewBox="0 0 48 48" fill="none" xmlns="http://www.w3.org/2000/svg">
<path d="M29.4993 4.74088C29.363 4.16341 29.6543 3.86092 30.1481 3.62968C35.4755 1.1348 41.0779 -0.0751467 46.9579 -0.00140017C47.7593 0.00859936 47.9994 0.237339 47.9994 1.0423C47.9831 13.4755 43.1196 23.5775 33.4138 31.3496C33.2713 31.4646 33.1338 31.5859 32.9775 31.7184C33.8027 33.4395 34.269 35.2357 34.1077 37.1131C34.0039 38.3218 33.6726 39.513 33.4126 40.7067C33.2976 41.2342 32.9337 41.4654 32.3849 41.3529C31.9635 41.0492 31.951 40.658 32.0748 40.1892C32.3073 39.3068 32.5787 38.4231 32.6812 37.5219C32.875 35.8182 32.4849 34.1945 31.7735 32.5621C28.0765 35.0707 24.1294 36.8719 19.856 37.9656C20.6762 40.8842 20.1248 43.2653 17.4367 45.0015C18.5482 45.5165 19.6172 46.0865 20.7537 46.3164C24.5232 47.0777 27.7501 46.0165 30.3332 43.1316C30.6657 42.7604 31.0183 42.6104 31.4922 42.7854C31.8723 43.2241 31.8185 43.6178 31.4422 44.0541C27.3526 48.7913 20.2848 49.3401 15.5538 45.2552C15.3375 45.0678 15.125 44.6715 15.1788 44.434C15.2325 44.199 15.6013 43.9253 15.8739 43.8666C18.4694 43.3141 19.4384 40.6842 18.3607 38.2531C17.3642 39.188 16.3778 40.1942 15.3038 41.0979C14.2748 41.9641 13.027 42.4566 11.7368 42.8254C10.9104 43.0616 10.4765 42.6454 10.6816 41.8079C10.7391 41.5717 10.8066 41.3379 10.8766 41.0779C9.85888 41.5067 8.89743 41.9354 7.91723 42.3154C7.35836 42.5329 6.77324 42.6904 6.19061 42.8404C5.35419 43.0566 4.88159 42.6041 5.1654 41.7804C5.68426 40.2742 6.28563 38.7955 6.852 37.3056C6.86576 37.2556 6.87826 37.2069 6.89201 37.1569C6.822 37.1656 6.75323 37.1731 6.68322 37.1819C6.21062 37.2481 5.71176 37.6281 5.27792 37.1494C4.87909 36.7094 5.19165 36.2457 5.32543 35.7994C6.02308 33.4583 7.45838 31.6396 9.33752 30.136C9.50006 30.006 9.66634 29.881 9.82888 29.751C9.84263 29.741 9.84138 29.7122 9.84763 29.6935C7.37961 28.5523 4.6903 29.496 4.12768 32.1121C4.06892 32.3858 3.79761 32.7558 3.56256 32.8096C3.32501 32.8646 2.92618 32.6546 2.73864 32.4383C-2.59998 26.3049 0.235614 16.6491 8.0335 14.3392C10.8553 13.503 13.5822 13.763 16.269 15.0042C17.0029 14.1354 17.718 13.2505 18.4744 12.4005C20.8437 9.7394 23.5643 7.492 26.5761 5.59084C26.9837 5.33335 27.3438 5.30835 27.7076 5.63834C28.0777 6.31081 27.6301 6.62329 27.1475 6.92828C22.444 9.90939 18.6232 13.7655 15.6851 18.4977C13.7722 21.5788 12.3757 24.8787 11.4792 28.3885C11.4217 28.6123 11.4292 28.9573 11.5617 29.1085C12.0418 29.651 12.5895 30.1347 13.1108 30.6397C14.5874 32.1321 16.0589 33.6308 17.5455 35.1132C18.0694 35.6357 18.5645 36.3957 19.1933 36.5469C19.8322 36.6994 20.6274 36.2607 21.3388 36.0357C27.3551 34.1333 32.5286 30.8797 36.8596 26.2936C39.964 23.005 42.3357 19.244 44.0323 15.0517C44.2023 14.6317 44.1636 14.3954 43.7547 14.1567C43.2171 13.8442 42.7158 13.4667 42.2119 13.0992C39.7064 11.2731 37.5484 9.08568 35.568 6.71329C34.8729 5.73958 34.1777 4.76588 33.4501 3.74718C32.5411 4.14841 31.6497 4.52714 30.7708 4.93587C30.2869 5.16086 29.8618 5.20461 29.4993 4.73963V4.74088ZM6.87451 40.9679C6.92452 41.0179 6.97578 41.0692 7.02579 41.1192C8.54361 40.3967 10.0527 39.658 11.5842 38.9668C11.8668 38.8393 12.2881 38.7831 12.5519 38.9005C12.9495 39.078 12.9008 39.4968 12.762 39.8867C12.6357 40.2417 12.5582 40.6155 12.4294 41.0929C14.5836 40.178 16.1127 38.7668 17.2892 36.9819C15.1875 34.8807 13.1121 32.8083 11.0029 30.6997C9.235 31.8959 7.7897 33.3996 6.91202 35.5719C7.35836 35.4457 7.67593 35.3682 7.98474 35.2657C8.39483 35.1295 8.80491 34.9995 9.11498 35.4307C9.39754 35.8232 9.15999 36.1582 8.9812 36.5244C8.26105 37.9968 7.5734 39.4843 6.87326 40.9667L6.87451 40.9679ZM15.2888 16.2053C11.7943 14.4079 6.76698 15.1254 3.67759 18.854C0.699461 22.4488 0.828238 27.4761 3.12747 30.5159C4.75281 27.8398 7.14706 27.3298 9.90014 28.096C10.6728 26.0211 11.3242 23.935 12.2206 21.9613C13.1171 19.9852 14.2573 18.1203 15.29 16.2066L15.2888 16.2053ZM34.9904 3.2572C36.0781 5.83708 42.462 12.2005 44.7662 13.018C46.0065 9.25817 46.5866 5.40085 46.5953 1.40103C42.577 1.43978 38.7374 2.01476 34.9917 3.2572H34.9904Z" fill="#061626"/>
<path d="M29.4993 4.74087C29.8618 5.20585 30.2882 5.1621 30.7708 4.93711C31.6497 4.52838 32.5412 4.14964 33.4501 3.74841C34.1777 4.76712 34.8729 5.74082 35.568 6.71453C34.6228 7.33325 33.6676 7.93697 32.7387 8.57944C32.3786 8.82818 32.0811 9.16691 31.7547 9.46565C30.4395 9.43065 29.1404 9.50815 27.9289 10.0969C24.9971 11.5206 23.5218 13.8779 23.4342 17.1215C23.2292 17.2428 22.9754 17.3215 22.8266 17.4928C21.3063 19.2414 19.7422 20.9564 18.3082 22.7738C16.3578 25.2449 14.5574 27.8285 13.1121 30.6409C12.5907 30.1347 12.0431 29.6522 11.563 29.1097C11.4292 28.9597 11.423 28.6148 11.4805 28.3898C12.3769 24.8799 13.7735 21.5788 15.6864 18.499C18.6245 13.7667 22.4453 9.91188 27.1488 6.92952C27.6301 6.62453 28.079 6.31079 27.7089 5.63958C28.3065 5.34084 28.9029 5.04085 29.5005 4.74212L29.4993 4.74087Z" fill="#BE95FB"/>
<path d="M31.4934 42.7853C31.0208 42.6104 30.667 42.7603 30.3344 43.1316C27.7513 46.0164 24.5244 47.0777 20.7549 46.3164C19.6171 46.0864 18.5494 45.5165 17.4379 45.0015C20.1272 43.2653 20.6774 40.8842 19.8572 37.9656C24.1306 36.8719 28.0777 35.0707 31.7747 32.5621C32.4861 34.1957 32.8762 35.8182 32.6824 37.5218C32.5799 38.4231 32.3085 39.3068 32.076 40.1892C31.9522 40.6579 31.9647 41.0492 32.3861 41.3529C32.0885 41.8304 31.7909 42.3091 31.4934 42.7866V42.7853Z" fill="#934FF8"/>
<path d="M15.2888 16.2054C14.2561 18.119 13.1159 19.9839 12.2194 21.9601C11.3242 23.935 10.6728 26.0199 9.89893 28.0948C7.14585 27.3286 4.7516 27.8386 3.12626 30.5147C0.825779 27.4748 0.697002 22.4476 3.67638 18.8527C6.76703 15.1242 11.7943 14.4054 15.2876 16.2041L15.2888 16.2054Z" fill="#934FF8"/>
<path d="M34.9904 3.2572C38.7362 2.01475 42.5758 1.43978 46.5941 1.40103C46.5854 5.4021 46.0053 9.25817 44.765 13.018C42.462 12.2005 36.0769 5.83708 34.9892 3.2572H34.9904Z" fill="#934FF8"/>
<path d="M6.87457 40.9679C7.57472 39.4855 8.26361 37.9981 8.98251 36.5257C9.1613 36.1594 9.39885 35.8257 9.11629 35.432C8.80623 35.0007 8.39614 35.1307 7.98606 35.267C7.67724 35.3695 7.35842 35.447 6.91333 35.5732C7.79101 33.4008 9.23632 31.8971 11.0042 30.7009C13.1134 32.8083 15.1876 34.882 17.2905 36.9831C16.1128 38.7681 14.5849 40.1792 12.4307 41.0942C12.5595 40.6167 12.6358 40.243 12.7633 39.888C12.9021 39.498 12.9508 39.0793 12.5533 38.9018C12.2895 38.7831 11.8681 38.8393 11.5856 38.968C10.054 39.6593 8.54492 40.398 7.02835 41.1204C6.97834 41.0704 6.92708 41.0192 6.87582 40.9692L6.87457 40.9679Z" fill="#E9DCFE"/>
<path d="M6.87457 40.968C6.92582 41.018 6.97707 41.068 7.02707 41.1192C6.97457 41.0692 6.92457 41.0192 6.87457 40.968Z" fill="#E20E08"/>
<path d="M31.7547 9.46567C34.6616 9.87315 36.7695 11.3843 37.9598 14.073C39.5051 17.5628 38.0435 21.6826 34.6153 23.6388C31.4596 25.4399 27.1837 24.5225 24.9858 21.5814C23.9956 20.2564 23.4892 18.7702 23.4342 17.1228C23.5205 13.878 24.997 11.5218 27.9289 10.0981C29.1417 9.50942 30.4394 9.43317 31.7547 9.46692V9.46567ZM24.8758 17.0366C24.8858 20.4252 27.6138 23.1288 31.0158 23.12C34.4028 23.1125 37.1271 20.3814 37.1258 16.9941C37.1246 13.6167 34.379 10.8694 31.0045 10.8669C27.5913 10.8644 24.8658 13.608 24.8758 17.0353V17.0366Z" fill="#061626"/>
<path d="M24.8758 17.0366C24.8658 13.6092 27.5913 10.8656 31.0045 10.8681C34.379 10.8706 37.1233 13.618 37.1258 16.9953C37.1271 20.3827 34.404 23.1138 31.0158 23.1213C27.6138 23.1288 24.8858 20.4252 24.8758 17.0378V17.0366ZM31.002 22.2988C33.9802 22.2963 36.2969 19.9614 36.2869 16.9753C36.2757 14.0155 33.9752 11.7168 31.0133 11.7056C28.0302 11.6956 25.6959 14.0167 25.6959 16.9966C25.6959 19.9752 28.0227 22.3001 31.002 22.2988Z" fill="#E9DCFE"/>
</svg>
