<svg width="25" height="26" viewBox="0 0 25 26" fill="none" xmlns="http://www.w3.org/2000/svg">
<g clip-path="url(#clip0_1_451)">
<path d="M24.9815 12.9678C24.9815 14.7584 25.0189 16.5498 24.9698 18.3388C24.9324 19.6997 24.6246 21.0146 23.8935 22.1933C22.73 24.068 20.9912 25.0209 18.8449 25.3238C17.5917 25.5005 16.3323 25.4873 15.0736 25.4779C12.3599 25.4577 9.64311 25.5807 6.93253 25.3954C4.51031 25.2296 2.48088 24.3125 1.16845 22.1583C0.562897 21.1649 0.262847 20.0672 0.167766 18.9157C-0.0987717 15.7035 0.0290418 12.4851 0.0454081 9.26981C0.0532016 7.75713 0.106198 6.22967 0.70318 4.79484C1.72803 2.33159 3.64367 1.0587 6.22488 0.675667C7.46326 0.491935 8.711 0.509063 9.95641 0.517627C12.6701 0.537868 15.3861 0.423425 18.0975 0.598593C20.2883 0.740285 22.2 1.48144 23.5678 3.29852C24.524 4.56985 24.923 6.04282 24.9721 7.59598C25.0283 9.38503 24.9854 11.1764 24.9854 12.967C24.9846 12.967 24.9831 12.967 24.9823 12.967L24.9815 12.9678ZM22.7113 12.9912C22.7113 12.3816 22.7167 11.772 22.7105 11.1624C22.6941 9.698 22.7471 8.22814 22.5219 6.77619C22.2998 5.33903 21.6069 4.19382 20.2711 3.51495C19.3219 3.03226 18.2838 2.92716 17.2433 2.90848C14.1789 2.85398 11.1145 2.86332 8.05012 2.90225C7.33623 2.91159 6.6239 2.96609 5.92639 3.13503C4.33807 3.5204 3.26335 4.46241 2.75833 6.03737C2.42788 7.06814 2.42632 8.13861 2.40996 9.19507C2.37021 11.737 2.37722 14.2796 2.40918 16.8215C2.41853 17.5697 2.43957 18.3233 2.55102 19.0699C2.87211 21.2287 4.07933 22.5133 6.22332 22.9485C7.49366 23.207 8.78582 23.1213 10.0663 23.1525C12.6101 23.2147 15.1555 23.1813 17.6985 23.0886C18.6501 23.0544 19.5861 22.8956 20.4293 22.4098C21.9132 21.5542 22.4923 20.1731 22.6099 18.5522C22.7448 16.7008 22.7058 14.8448 22.7105 12.9912H22.7113Z" fill="#582F95"/>
<path d="M18.9935 12.9977C18.9935 16.5633 16.0834 19.4765 12.5319 19.4656C9.00304 19.4547 6.0945 16.5361 6.09216 13.0031C6.08983 9.47016 8.99291 6.51176 12.5265 6.54446C16.4692 6.58105 19.038 9.76989 18.9935 12.9977ZM16.6376 13.0062C16.6391 10.7135 14.8295 8.8956 12.5428 8.89794C10.204 8.90028 8.45515 10.8575 8.44269 12.9751C8.43022 15.1004 10.1635 17.0958 12.5304 17.1013C14.8201 17.1067 16.6352 15.2966 16.6368 13.0062H16.6376Z" fill="#582F95"/>
<path d="M17.696 6.3226C17.7006 5.46934 18.3794 4.79825 19.2266 4.80837C20.0605 4.81771 20.7635 5.52929 20.7565 6.35452C20.7487 7.19066 20.0527 7.88199 19.2141 7.8851C18.3374 7.889 17.6905 7.22336 17.696 6.3226Z" fill="#582F95"/>
</g>
<defs>
<clipPath id="clip0_1_451">
<rect width="25" height="25" fill="white" transform="translate(0 0.5)"/>
</clipPath>
</defs>
</svg>
